<svg width="94" height="22" viewBox="0 0 94 22" fill="none" xmlns="http://www.w3.org/2000/svg">
<path d="M3.2152 18L0.441051 8.18182H2.79972L4.52557 15.0852H4.61506L6.37926 8.18182H8.71236L10.4766 15.0469H10.5724L12.2727 8.18182H14.6378L11.8572 18H9.44744L7.60653 11.3651H7.4723L5.63139 18H3.2152ZM19.7787 18.1918C18.7943 18.1918 17.9442 17.9872 17.2283 17.5781C16.5166 17.1648 15.9691 16.581 15.5855 15.8267C15.202 15.0682 15.0102 14.1754 15.0102 13.1484C15.0102 12.1385 15.202 11.2521 15.5855 10.4893C15.9733 9.7223 16.5145 9.12571 17.2091 8.69957C17.9037 8.26918 18.7198 8.05398 19.6573 8.05398C20.2624 8.05398 20.8334 8.15199 21.3703 8.34801C21.9115 8.53977 22.3888 8.83807 22.8022 9.2429C23.2198 9.64773 23.5479 10.1634 23.7865 10.7898C24.0252 11.4119 24.1445 12.1534 24.1445 13.0142V13.7237H16.0969V12.1641H21.9264C21.9222 11.7209 21.8263 11.3267 21.6388 10.9815C21.4513 10.6321 21.1892 10.3572 20.8526 10.157C20.5202 9.95668 20.1324 9.85653 19.6892 9.85653C19.2162 9.85653 18.8007 9.97159 18.4428 10.2017C18.0848 10.4276 17.8057 10.7259 17.6054 11.0966C17.4094 11.4631 17.3093 11.8658 17.305 12.3047V13.6662C17.305 14.2372 17.4094 14.7273 17.6182 15.1364C17.827 15.5412 18.1189 15.8523 18.4939 16.0696C18.8689 16.2827 19.3078 16.3892 19.8107 16.3892C20.1473 16.3892 20.452 16.3423 20.7247 16.2486C20.9975 16.1506 21.234 16.0078 21.4343 15.8203C21.6345 15.6328 21.7858 15.4006 21.8881 15.1236L24.0486 15.3665C23.9122 15.9375 23.6523 16.4361 23.2688 16.8622C22.8895 17.2841 22.4037 17.6122 21.8114 17.8466C21.2191 18.0767 20.5415 18.1918 19.7787 18.1918ZM25.6643 18V4.90909H27.9782V9.8054H28.0741C28.1934 9.56676 28.3618 9.31321 28.5791 9.04474C28.7964 8.77202 29.0905 8.53977 29.4612 8.34801C29.8319 8.15199 30.3049 8.05398 30.8802 8.05398C31.6388 8.05398 32.3227 8.24787 32.9321 8.63565C33.5457 9.01918 34.0315 9.58807 34.3895 10.3423C34.7517 11.0923 34.9328 12.0128 34.9328 13.1037C34.9328 14.1818 34.7559 15.098 34.4022 15.8523C34.0486 16.6065 33.567 17.1818 32.9576 17.5781C32.3483 17.9744 31.6579 18.1726 30.8866 18.1726C30.3241 18.1726 29.8575 18.0788 29.4868 17.8913C29.116 17.7038 28.8177 17.478 28.5919 17.2138C28.3703 16.9453 28.1977 16.6918 28.0741 16.4531H27.9399V18H25.6643ZM27.9335 13.0909C27.9335 13.7259 28.023 14.282 28.202 14.7592C28.3852 15.2365 28.6473 15.6094 28.9882 15.8778C29.3334 16.142 29.751 16.2741 30.241 16.2741C30.7524 16.2741 31.1807 16.1378 31.5258 15.8651C31.871 15.5881 32.1309 15.2109 32.3057 14.7337C32.4846 14.2521 32.5741 13.7045 32.5741 13.0909C32.5741 12.4815 32.4868 11.9403 32.312 11.4673C32.1373 10.9943 31.8774 10.6236 31.5322 10.3551C31.187 10.0866 30.7566 9.95241 30.241 9.95241C29.7467 9.95241 29.327 10.0824 28.9818 10.3423C28.6366 10.6023 28.3745 10.9666 28.1956 11.4354C28.0209 11.9041 27.9335 12.456 27.9335 13.0909ZM40.6426 18.1918C39.6625 18.1918 38.8209 17.9766 38.1177 17.5462C37.4189 17.1158 36.8798 16.5213 36.5006 15.7628C36.1256 15 35.9381 14.1222 35.9381 13.1293C35.9381 12.1321 36.1298 11.2521 36.5133 10.4893C36.8969 9.7223 37.4381 9.12571 38.1369 8.69957C38.8401 8.26918 39.671 8.05398 40.6298 8.05398C41.4267 8.05398 42.132 8.20099 42.7456 8.49503C43.3635 8.7848 43.8557 9.19602 44.2222 9.72869C44.5886 10.2571 44.7974 10.875 44.8486 11.5824H42.6369C42.5474 11.1094 42.3344 10.7152 41.9977 10.3999C41.6653 10.0803 41.22 9.92045 40.6618 9.92045C40.1888 9.92045 39.7733 10.0483 39.4153 10.304C39.0574 10.5554 38.7783 10.9176 38.578 11.3906C38.382 11.8636 38.2839 12.4304 38.2839 13.0909C38.2839 13.7599 38.382 14.3352 38.578 14.8168C38.774 15.294 39.0489 15.6626 39.4026 15.9226C39.7605 16.1783 40.1802 16.3061 40.6618 16.3061C41.0027 16.3061 41.3074 16.2422 41.5758 16.1143C41.8486 15.9822 42.0766 15.7926 42.2598 15.5455C42.443 15.2983 42.5687 14.9979 42.6369 14.6442H44.8486C44.7932 15.3388 44.5886 15.9545 44.2349 16.4915C43.8812 17.0241 43.3997 17.4418 42.7903 17.7443C42.181 18.0426 41.4651 18.1918 40.6426 18.1918ZM46.2086 18V8.18182H48.4522V9.81818H48.5545C48.7335 9.25142 49.0403 8.81463 49.4749 8.50781C49.9139 8.19673 50.4146 8.04119 50.9771 8.04119C51.1049 8.04119 51.2477 8.04758 51.4053 8.06037C51.5673 8.06889 51.7015 8.08381 51.808 8.10511V10.2337C51.71 10.1996 51.5545 10.1697 51.3414 10.1442C51.1326 10.1143 50.9302 10.0994 50.7342 10.0994C50.3123 10.0994 49.933 10.1911 49.5964 10.3743C49.264 10.5533 49.0019 10.8026 48.8102 11.1222C48.6184 11.4418 48.5225 11.8104 48.5225 12.228V18H46.2086ZM55.4548 18.1982C54.8327 18.1982 54.2723 18.0874 53.7737 17.8658C53.2794 17.6399 52.8874 17.3075 52.5976 16.8686C52.3121 16.4297 52.1693 15.8885 52.1693 15.245C52.1693 14.6911 52.2716 14.233 52.4761 13.8707C52.6807 13.5085 52.9598 13.2188 53.3135 13.0014C53.6672 12.7841 54.0656 12.62 54.5088 12.5092C54.9562 12.3942 55.4186 12.3111 55.8959 12.2599C56.4712 12.2003 56.9378 12.147 57.2957 12.1001C57.6537 12.049 57.9136 11.9723 58.0756 11.87C58.2418 11.7635 58.3249 11.5994 58.3249 11.3778V11.3395C58.3249 10.858 58.1821 10.4851 57.8966 10.2209C57.6111 9.95668 57.1999 9.82457 56.6629 9.82457C56.0962 9.82457 55.6466 9.94815 55.3142 10.1953C54.9861 10.4425 54.7645 10.7344 54.6494 11.071L52.4889 10.7642C52.6594 10.1676 52.9406 9.66903 53.3327 9.26847C53.7247 8.86364 54.2041 8.56108 54.7709 8.3608C55.3376 8.15625 55.9641 8.05398 56.6501 8.05398C57.1232 8.05398 57.594 8.10938 58.0628 8.22017C58.5315 8.33097 58.9598 8.5142 59.3476 8.76989C59.7354 9.02131 60.0464 9.36435 60.2808 9.79901C60.5195 10.2337 60.6388 10.777 60.6388 11.429V18H58.4143V16.6513H58.3376C58.197 16.924 57.9989 17.1797 57.7432 17.4183C57.4918 17.6527 57.1743 17.8423 56.7908 17.9872C56.4115 18.1278 55.9662 18.1982 55.4548 18.1982ZM56.0557 16.4979C56.5202 16.4979 56.9229 16.4062 57.2638 16.223C57.6047 16.0355 57.8668 15.7884 58.05 15.4815C58.2375 15.1747 58.3312 14.8402 58.3312 14.478V13.321C58.2588 13.3807 58.1352 13.4361 57.9605 13.4872C57.7901 13.5384 57.5983 13.5831 57.3852 13.6214C57.1722 13.6598 56.9612 13.6939 56.7524 13.7237C56.5436 13.7536 56.3625 13.7791 56.2091 13.8004C55.8639 13.8473 55.555 13.924 55.2822 14.0305C55.0095 14.1371 54.7943 14.2862 54.6366 14.478C54.479 14.6655 54.4001 14.9084 54.4001 15.2067C54.4001 15.6328 54.5557 15.9545 54.8668 16.1719C55.1778 16.3892 55.5741 16.4979 56.0557 16.4979ZM67.3985 8.18182V9.97159H61.5945V8.18182H67.3985ZM63.0455 18V7.25497C63.0455 6.59446 63.1819 6.04474 63.4546 5.60582C63.7316 5.1669 64.1023 4.83878 64.5668 4.62145C65.0313 4.40412 65.5469 4.29545 66.1137 4.29545C66.5143 4.29545 66.8701 4.32741 67.1812 4.39134C67.4922 4.45526 67.7224 4.51278 67.8715 4.56392L67.4113 6.35369C67.3133 6.32386 67.1897 6.29403 67.0405 6.2642C66.8914 6.23011 66.7252 6.21307 66.542 6.21307C66.1116 6.21307 65.8069 6.31747 65.6279 6.52628C65.4532 6.73082 65.3658 7.02486 65.3658 7.40838V18H63.0455ZM73.5733 8.18182V9.97159H67.9292V8.18182H73.5733ZM69.3226 5.82955H71.6365V15.0469C71.6365 15.358 71.6834 15.5966 71.7772 15.7628C71.8752 15.9247 72.003 16.0355 72.1607 16.0952C72.3184 16.1548 72.4931 16.1847 72.6848 16.1847C72.8297 16.1847 72.9618 16.174 73.0812 16.1527C73.2047 16.1314 73.2985 16.1122 73.3624 16.0952L73.7523 17.9041C73.6287 17.9467 73.4519 17.9936 73.2218 18.0447C72.9959 18.0959 72.7189 18.1257 72.3908 18.1342C71.8113 18.1513 71.2892 18.0639 70.8248 17.8722C70.3603 17.6761 69.9917 17.3736 69.7189 16.9645C69.4505 16.5554 69.3184 16.044 69.3226 15.4304V5.82955ZM74.9685 18V8.18182H77.2825V18H74.9685ZM76.1319 6.78835C75.7654 6.78835 75.4501 6.6669 75.1859 6.42401C74.9217 6.17685 74.7896 5.88068 74.7896 5.53551C74.7896 5.18608 74.9217 4.88991 75.1859 4.64702C75.4501 4.39986 75.7654 4.27628 76.1319 4.27628C76.5026 4.27628 76.818 4.39986 77.0779 4.64702C77.3421 4.88991 77.4742 5.18608 77.4742 5.53551C77.4742 5.88068 77.3421 6.17685 77.0779 6.42401C76.818 6.6669 76.5026 6.78835 76.1319 6.78835ZM83.4046 18.1918C82.4244 18.1918 81.5828 17.9766 80.8797 17.5462C80.1808 17.1158 79.6418 16.5213 79.2625 15.7628C78.8875 15 78.7 14.1222 78.7 13.1293C78.7 12.1321 78.8918 11.2521 79.2753 10.4893C79.6588 9.7223 80.2 9.12571 80.8989 8.69957C81.602 8.26918 82.433 8.05398 83.3918 8.05398C84.1887 8.05398 84.8939 8.20099 85.5075 8.49503C86.1254 8.7848 86.6176 9.19602 86.9841 9.72869C87.3506 10.2571 87.5594 10.875 87.6105 11.5824H85.3989C85.3094 11.1094 85.0963 10.7152 84.7597 10.3999C84.4273 10.0803 83.982 9.92045 83.4237 9.92045C82.9507 9.92045 82.5352 10.0483 82.1773 10.304C81.8193 10.5554 81.5402 10.9176 81.3399 11.3906C81.1439 11.8636 81.0459 12.4304 81.0459 13.0909C81.0459 13.7599 81.1439 14.3352 81.3399 14.8168C81.536 15.294 81.8108 15.6626 82.1645 15.9226C82.5225 16.1783 82.9422 16.3061 83.4237 16.3061C83.7646 16.3061 84.0693 16.2422 84.3378 16.1143C84.6105 15.9822 84.8385 15.7926 85.0217 15.5455C85.205 15.2983 85.3307 14.9979 85.3989 14.6442H87.6105C87.5551 15.3388 87.3506 15.9545 86.9969 16.4915C86.6432 17.0241 86.1617 17.4418 85.5523 17.7443C84.9429 18.0426 84.227 18.1918 83.4046 18.1918ZM90.396 18.1406C90.0082 18.1406 89.6758 18.0043 89.3988 17.7315C89.1218 17.4588 88.9855 17.1264 88.9897 16.7344C88.9855 16.3509 89.1218 16.0227 89.3988 15.75C89.6758 15.4773 90.0082 15.3409 90.396 15.3409C90.771 15.3409 91.097 15.4773 91.374 15.75C91.6552 16.0227 91.798 16.3509 91.8022 16.7344C91.798 16.9943 91.7298 17.2308 91.5977 17.4439C91.4698 17.657 91.2994 17.8274 91.0863 17.9553C90.8775 18.0788 90.6474 18.1406 90.396 18.1406Z" fill="url(#paint0_linear_1_34)"/>
<defs>
<linearGradient id="paint0_linear_1_34" x1="2.36374" y1="-3.15574" x2="95.0521" y2="7.43037" gradientUnits="userSpaceOnUse">
<stop offset="0.320146" stop-color="#623CEA"/>
<stop offset="0.620477" stop-color="#7639D5"/>
<stop offset="1" stop-color="#AC32A0"/>
</linearGradient>
</defs>
</svg>
